<?xml version="1.0" encoding="UTF-8" standalone="no"?>
<!DOCTYPE svg PUBLIC "-//W3C//DTD SVG 1.1//EN" "http://www.w3.org/Graphics/SVG/1.1/DTD/svg11.dtd">
<svg width="100%" height="100%" viewBox="0 0 134 250" version="1.1" xmlns="http://www.w3.org/2000/svg" xmlns:xlink="http://www.w3.org/1999/xlink" xml:space="preserve" xmlns:serif="http://www.serif.com/" style="fill-rule:evenodd;clip-rule:evenodd;stroke-linejoin:round;stroke-miterlimit:2;">
    <g transform="matrix(1.14746,0,0,1.14746,-9.87994,-18.4324)">
        <path d="M78.735,67.736L78.725,67.747C78.725,67.747 78.725,67.747 78.724,67.747C74.029,63.189 67.061,61.885 61.035,64.437C55.009,66.989 51.096,72.9 51.101,79.444C51.126,111.45 51.153,145.838 51.173,171.001C51.179,179.757 58.28,186.853 67.037,186.853L67.038,186.853C71.245,186.853 75.279,185.182 78.254,182.207C81.228,179.233 82.899,175.199 82.899,170.992L82.899,147.575L82.3,147.231C72.279,141.143 69.086,128.064 75.174,118.043L85.987,100.243C90.934,92.101 100.697,88.247 109.872,90.816C119.047,93.384 125.39,101.747 125.39,111.274L125.39,170.992C125.39,186.468 119.242,201.31 108.299,212.253C97.356,223.196 82.514,229.343 67.038,229.343L67.037,229.343C34.826,229.343 8.707,203.245 8.682,171.034C8.662,145.872 8.635,111.483 8.61,79.477C8.592,55.856 22.716,34.52 44.467,25.31C65.593,16.364 89.928,20.547 106.838,35.869C111.739,39.768 114.884,45.783 114.884,52.527C114.884,64.27 105.35,73.803 93.607,73.803C87.822,73.803 82.572,71.489 78.735,67.736Z" style="fill:rgb(255,255,255);"/>
    </g>
</svg>
